<?xml version="1.0" standalone="no"?>
<!DOCTYPE svg PUBLIC "-//W3C//DTD SVG 20010904//EN"
 "http://www.w3.org/TR/2001/REC-SVG-20010904/DTD/svg10.dtd">
<svg version="1.0" xmlns="http://www.w3.org/2000/svg"
 width="120.000000pt" height="120.000000pt" viewBox="0 0 120.000000 120.000000"
 preserveAspectRatio="xMidYMid meet">

<g transform="translate(0.000000,120.000000) scale(0.100000,-0.100000)"
fill="#000000" stroke="none">
<path d="M370 917 c-50 -16 -104 -75 -120 -132 -30 -109 20 -207 193 -377 151
-148 149 -147 190 -115 70 55 239 229 272 282 48 74 63 146 45 210 -24 84
-107 145 -196 145 -32 0 -109 -33 -136 -57 -17 -15 -19 -15 -36 0 -30 27 -105
57 -142 56 -19 -1 -51 -6 -70 -12z m126 -77 c23 -12 50 -32 58 -45 11 -17 26
-25 46 -25 20 0 35 8 46 25 24 36 96 68 136 60 50 -11 75 -32 93 -77 27 -68
-1 -144 -88 -235 l-50 -53 -137 0 -137 0 -50 53 c-87 91 -115 167 -88 235 21
51 57 76 114 81 8 0 34 -8 57 -19z"/>
</g>
</svg>
