<?xml version="1.0" standalone="no"?>
<!DOCTYPE svg PUBLIC "-//W3C//DTD SVG 20010904//EN"
 "http://www.w3.org/TR/2001/REC-SVG-20010904/DTD/svg10.dtd">
<svg version="1.0" xmlns="http://www.w3.org/2000/svg"
 width="120.000000pt" height="120.000000pt" viewBox="0 0 120.000000 120.000000"
 preserveAspectRatio="xMidYMid meet">

<g transform="translate(0.000000,120.000000) scale(0.100000,-0.100000)"
fill="#000000" stroke="none">
<path d="M370 917 c-50 -16 -104 -75 -120 -132 -30 -109 20 -207 193 -377 151
-148 149 -147 190 -115 70 55 239 229 272 282 48 74 63 146 45 210 -24 84
-107 145 -196 145 -32 0 -109 -33 -136 -57 -17 -15 -19 -15 -36 0 -30 27 -105
57 -142 56 -19 -1 -51 -6 -70 -12z m126 -77 c23 -12 50 -32 58 -45 11 -17 26
-25 46 -25 20 0 35 8 46 25 24 36 96 68 136 60 50 -11 75 -32 93 -77 17 -43
14 -81 -10 -129 l-14 -25 -252 3 c-276 3 -261 0 -280 67 -19 68 22 142 86 159
36 9 48 7 91 -13z"/>
</g>
</svg>
